<?xml version="1.0" encoding="utf-8"?>
<!-- Generator: Adobe Illustrator 17.0.0, SVG Export Plug-In . SVG Version: 6.00 Build 0)  -->
<!DOCTYPE svg PUBLIC "-//W3C//DTD SVG 1.1//EN" "http://www.w3.org/Graphics/SVG/1.1/DTD/svg11.dtd">
<svg version="1.1" xmlns="http://www.w3.org/2000/svg" xmlns:xlink="http://www.w3.org/1999/xlink" x="0px" y="0px" width="1400px"
	 height="980px" viewBox="0 0 1400 980" enable-background="new 0 0 1400 980" xml:space="preserve">
<g id="Layer_1">
	<g>
		<linearGradient id="SVGID_1_" gradientUnits="userSpaceOnUse" x1="700" y1="980" x2="700" y2="-3.142668e-008">
			<stop  offset="0" style="stop-color:#FFFF71"/>
			<stop  offset="1" style="stop-color:#85F1D5"/>
		</linearGradient>
		<rect fill-rule="evenodd" clip-rule="evenodd" fill="url(#SVGID_1_)" width="1400" height="980"/>
		<polygon fill-rule="evenodd" clip-rule="evenodd" fill="#B9FFB3" points="0,167 1027.6,235.6 556.3,239.6 1400,302.9 1400,448.5 
			688.1,409.7 1104.7,477.6 0,448.5 		"/>
	</g>
</g>
<g id="Layer_2">
	<g>
		<linearGradient id="SVGID_2_" gradientUnits="userSpaceOnUse" x1="1400" y1="359.2818" x2="671.4421" y2="359.2818">
			<stop  offset="0" style="stop-color:#FFFFB3"/>
			<stop  offset="1" style="stop-color:#D2FFCE;stop-opacity:0"/>
		</linearGradient>
		<path fill-rule="evenodd" clip-rule="evenodd" fill="url(#SVGID_2_)" d="M1400,271.5c-48.1-13.8-124.9,0.6-152.3,54.2
			c-37.7-37-82.5-2.6-89.1,23.3c-75-46.2-166.8-10.7-185.2,52c-16.4-18.5-38.1-29.2-74.8-18c-39.7-12.7-69.3-3.6-83.1,39
			c-54.3-8.9-102.7,0-144.1,30H1400V271.5z"/>
		<linearGradient id="SVGID_3_" gradientUnits="userSpaceOnUse" x1="0" y1="188.5999" x2="778.8088" y2="188.5999">
			<stop  offset="0" style="stop-color:#FFFFB3"/>
			<stop  offset="1" style="stop-color:#D2FFCE;stop-opacity:0"/>
		</linearGradient>
		<path fill-rule="evenodd" clip-rule="evenodd" fill="url(#SVGID_3_)" d="M0,92.2c69.1,1.5,111.9,37.3,143.3,88.2
			c40.3-39.6,89.2-40.6,120,4.4c74.8-30,139.5-16.9,192.6,45.9c17.5-19.7,40.7-31.1,80-19.2c42.4-13.6,74.1-4.1,88.9,41.6
			c58.1-9.6,109.8,0,154,32H0V92.2z"/>
		<linearGradient id="SVGID_4_" gradientUnits="userSpaceOnUse" x1="1400" y1="123.4245" x2="979.5437" y2="123.4245">
			<stop  offset="0" style="stop-color:#FFFFB3"/>
			<stop  offset="1" style="stop-color:#D2FFCE;stop-opacity:0"/>
		</linearGradient>
		<path fill-rule="evenodd" clip-rule="evenodd" fill="url(#SVGID_4_)" d="M1400,71.8c-37,0.8-60.5,20.1-77.5,47.6
			c-21.7-21.3-48.2-21.9-64.8,2.4c-40.3-16.2-75.3-9.1-103.9,24.8c-9.4-10.7-22-16.8-43.2-10.4c-22.9-7.3-40-2.7-48,22
			c-31.3-5.1-59.2,0.8-83.1,16.8H1400V71.8z"/>
	</g>
	<g>
		<linearGradient id="SVGID_5_" gradientUnits="userSpaceOnUse" x1="700" y1="980" x2="700" y2="308.4894">
			<stop  offset="0" style="stop-color:#224A51"/>
			<stop  offset="1" style="stop-color:#43CFCF"/>
		</linearGradient>
		<polygon fill-rule="evenodd" clip-rule="evenodd" fill="url(#SVGID_5_)" points="0,980 0,577.5 217.9,533.7 525.8,430.2 
			827.6,421.6 988.6,308.5 1160.1,433.7 1317.1,453.7 1400,500.4 1400,980 		"/>
		<linearGradient id="SVGID_6_" gradientUnits="userSpaceOnUse" x1="700" y1="980" x2="700" y2="308.4894">
			<stop  offset="0" style="stop-color:#177862"/>
			<stop  offset="1" style="stop-color:#8CFFFF"/>
		</linearGradient>
		<polygon fill-rule="evenodd" clip-rule="evenodd" fill="url(#SVGID_6_)" points="0,980 0,679.4 213.1,599.3 500,635.1 
			729.4,519.1 917.8,431.8 988.6,308.5 1160.1,433.7 1317.1,453.7 1400,500.4 1400,980 		"/>
		<g>
			<linearGradient id="SVGID_7_" gradientUnits="userSpaceOnUse" x1="700" y1="980" x2="700" y2="207.3221">
				<stop  offset="0" style="stop-color:#224A51"/>
				<stop  offset="1" style="stop-color:#43CFCF"/>
			</linearGradient>
			<polygon fill-rule="evenodd" clip-rule="evenodd" fill="url(#SVGID_7_)" points="0,980 0,440 211.5,351.1 375.9,207.3 592.2,385 
				798.1,385 1093.1,534.6 1400,616.3 1400,980 			"/>
			<linearGradient id="SVGID_8_" gradientUnits="userSpaceOnUse" x1="700" y1="980" x2="700" y2="207.3221">
				<stop  offset="0" style="stop-color:#177862"/>
				<stop  offset="1" style="stop-color:#8CFFFF"/>
			</linearGradient>
			<polygon fill-rule="evenodd" clip-rule="evenodd" fill="url(#SVGID_8_)" points="0,980 0,637.1 279.6,395.6 375.9,207.3 
				592.2,385 798.1,385 1093.1,534.6 1400,616.3 1400,980 			"/>
		</g>
	</g>
	<linearGradient id="SVGID_9_" gradientUnits="userSpaceOnUse" x1="1400" y1="595.1168" x2="329.1849" y2="595.1168">
		<stop  offset="0" style="stop-color:#FFFFB3"/>
		<stop  offset="1" style="stop-color:#D2FFCE;stop-opacity:0"/>
	</linearGradient>
	<path fill-rule="evenodd" clip-rule="evenodd" fill="url(#SVGID_9_)" d="M1400,466.4c-70.4-20.2-183.6,0.8-223.8,79.7
		c-55.4-54.4-121.2-3.9-130.9,34.3c-110.2-67.9-245.1-15.8-272.2,76.5c-24-27.1-56-42.8-110-26.5c-58.3-18.7-101.8-5.8-122.2,56.9
		C461.1,674.1,390,688,329.2,731H1400V466.4z"/>
	<g>
		<linearGradient id="SVGID_10_" gradientUnits="userSpaceOnUse" x1="569.4044" y1="980" x2="569.4044" y2="461.7003">
			<stop  offset="0" style="stop-color:#28587D"/>
			<stop  offset="1" style="stop-color:#6EFFA8"/>
		</linearGradient>
		<polygon fill-rule="evenodd" clip-rule="evenodd" fill="url(#SVGID_10_)" points="0,577.5 102.6,461.7 231.6,502.9 362.5,519.4 
			573.8,640.6 802.8,683.4 1138.8,980 0,980 		"/>
		<g>
			<linearGradient id="SVGID_11_" gradientUnits="userSpaceOnUse" x1="157.9809" y1="512" x2="157.9809" y2="424.231">
				<stop  offset="0" style="stop-color:#28587D"/>
				<stop  offset="1" style="stop-color:#6EFFA8"/>
			</linearGradient>
			<path fill-rule="evenodd" clip-rule="evenodd" fill="url(#SVGID_11_)" d="M156.7,424.2c-14,27.7-17.6,56.8-12.2,87.8h27.3
				C177.4,481,171.7,452,156.7,424.2L156.7,424.2z"/>
			<linearGradient id="SVGID_12_" gradientUnits="userSpaceOnUse" x1="200.0054" y1="576" x2="200.0054" y2="471.1531">
				<stop  offset="0" style="stop-color:#28587D"/>
				<stop  offset="1" style="stop-color:#6EFFA8"/>
			</linearGradient>
			<path fill-rule="evenodd" clip-rule="evenodd" fill="url(#SVGID_12_)" d="M198.3,471.2c-19.2,33.1-24.1,67.8-16.8,104.8h37.3
				C226.6,539,218.8,504.3,198.3,471.2L198.3,471.2z"/>
			<linearGradient id="SVGID_13_" gradientUnits="userSpaceOnUse" x1="324.0049" y1="530" x2="324.0049" y2="451.9947">
				<stop  offset="0" style="stop-color:#28587D"/>
				<stop  offset="1" style="stop-color:#6EFFA8"/>
			</linearGradient>
			<path fill-rule="evenodd" clip-rule="evenodd" fill="url(#SVGID_13_)" d="M322.7,452c-14.3,24.6-18,50-12.5,78H338
				C343.8,502,338,476.7,322.7,452L322.7,452z"/>
			<linearGradient id="SVGID_14_" gradientUnits="userSpaceOnUse" x1="449.3142" y1="609" x2="449.3142" y2="504.1881">
				<stop  offset="0" style="stop-color:#28587D"/>
				<stop  offset="1" style="stop-color:#6EFFA8"/>
			</linearGradient>
			<path fill-rule="evenodd" clip-rule="evenodd" fill="url(#SVGID_14_)" d="M447.6,504.2c-19.2,33.1-24.1,66.8-16.8,104.8h37.3
				C475.9,571,468.1,537.4,447.6,504.2L447.6,504.2z"/>
			<linearGradient id="SVGID_15_" gradientUnits="userSpaceOnUse" x1="768.5226" y1="700" x2="768.5226" y2="621.9948">
				<stop  offset="0" style="stop-color:#28587D"/>
				<stop  offset="1" style="stop-color:#6EFFA8"/>
			</linearGradient>
			<path fill-rule="evenodd" clip-rule="evenodd" fill="url(#SVGID_15_)" d="M767.2,622c-14.2,24.6-18,51-12.5,78h27.8
				C788.3,673,782.5,646.7,767.2,622L767.2,622z"/>
			<linearGradient id="SVGID_16_" gradientUnits="userSpaceOnUse" x1="39.8029" y1="571" x2="39.8029" y2="492.9947">
				<stop  offset="0" style="stop-color:#28587D"/>
				<stop  offset="1" style="stop-color:#6EFFA8"/>
			</linearGradient>
			<path fill-rule="evenodd" clip-rule="evenodd" fill="url(#SVGID_16_)" d="M38.5,493c-14.3,24.6-18,51-12.5,78h27.8
				C59.6,544,53.8,517.7,38.5,493L38.5,493z"/>
		</g>
	</g>
	<g>
		<linearGradient id="SVGID_17_" gradientUnits="userSpaceOnUse" x1="940.5155" y1="980" x2="940.5155" y2="404.9023">
			<stop  offset="0" style="stop-color:#28587D"/>
			<stop  offset="1" style="stop-color:#6EFFA8"/>
		</linearGradient>
		<polygon fill-rule="evenodd" clip-rule="evenodd" fill="url(#SVGID_17_)" points="1400,406.7 1331.5,404.9 1226.6,558.9 
			1027.5,615.7 957,689 642.7,768.3 481,980 1400,980 		"/>
		<g>
			<linearGradient id="SVGID_18_" gradientUnits="userSpaceOnUse" x1="1353.6359" y1="437" x2="1353.6359" y2="358.9948">
				<stop  offset="0" style="stop-color:#28587D"/>
				<stop  offset="1" style="stop-color:#6EFFA8"/>
			</linearGradient>
			<path fill-rule="evenodd" clip-rule="evenodd" fill="url(#SVGID_18_)" d="M1352.3,359c-14.2,24.6-17.9,50-12.5,78h27.8
				C1373.4,409,1367.6,383.7,1352.3,359L1352.3,359z"/>
			<linearGradient id="SVGID_19_" gradientUnits="userSpaceOnUse" x1="1055.1151" y1="676" x2="1055.1151" y2="571.1881">
				<stop  offset="0" style="stop-color:#28587D"/>
				<stop  offset="1" style="stop-color:#6EFFA8"/>
			</linearGradient>
			<path fill-rule="evenodd" clip-rule="evenodd" fill="url(#SVGID_19_)" d="M1053.3,571.2c-19.1,33.1-24.1,67.8-16.8,104.8h37.3
				C1081.7,639,1073.9,604.4,1053.3,571.2L1053.3,571.2z"/>
			<linearGradient id="SVGID_20_" gradientUnits="userSpaceOnUse" x1="1310.0233" y1="520" x2="1310.0233" y2="415.1881">
				<stop  offset="0" style="stop-color:#28587D"/>
				<stop  offset="1" style="stop-color:#6EFFA8"/>
			</linearGradient>
			<path fill-rule="evenodd" clip-rule="evenodd" fill="url(#SVGID_20_)" d="M1308.3,415.2c-19.1,33-24.1,67.8-16.8,104.8h37.3
				C1336.6,483,1328.8,448.3,1308.3,415.2L1308.3,415.2z"/>
			<linearGradient id="SVGID_21_" gradientUnits="userSpaceOnUse" x1="1350.531" y1="688" x2="1350.531" y2="583.1881">
				<stop  offset="0" style="stop-color:#28587D"/>
				<stop  offset="1" style="stop-color:#6EFFA8"/>
			</linearGradient>
			<path fill-rule="evenodd" clip-rule="evenodd" fill="url(#SVGID_21_)" d="M1348.8,583.2c-19.1,33.1-24.1,66.8-16.8,104.8h37.3
				C1377.1,650,1369.3,616.4,1348.8,583.2L1348.8,583.2z"/>
			<linearGradient id="SVGID_22_" gradientUnits="userSpaceOnUse" x1="1214.452" y1="610" x2="1214.452" y2="532.0298">
				<stop  offset="0" style="stop-color:#28587D"/>
				<stop  offset="1" style="stop-color:#6EFFA8"/>
			</linearGradient>
			<path fill-rule="evenodd" clip-rule="evenodd" fill="url(#SVGID_22_)" d="M1213.1,532c-14.2,24.6-17.9,49-12.5,78h27.8
				C1234.2,581,1228.4,556.7,1213.1,532L1213.1,532z"/>
		</g>
	</g>
	<g>
		<path fill-rule="evenodd" clip-rule="evenodd" fill="#0C4466" d="M939.6,563.7c-2.3,54.3-0.7,145.9-8.3,185l21.8,0
			C943.1,700,942.7,623.7,939.6,563.7L939.6,563.7z"/>
		<linearGradient id="SVGID_23_" gradientUnits="userSpaceOnUse" x1="939.8061" y1="714.1937" x2="939.8061" y2="673.3188">
			<stop  offset="0" style="stop-color:#28587D"/>
			<stop  offset="1" style="stop-color:#6EFFA8"/>
		</linearGradient>
		<path fill-rule="evenodd" clip-rule="evenodd" fill="url(#SVGID_23_)" d="M940.5,673.3c-10.3,17.8-27.2,28.2-45.5,32.3
			c13.2,7.8,21.1,6.1,31.7,1.9c3.8,13.2,21.9-5.7,29.4,6.7c1.4-8,13.3-9.7,26.2-10.1c-6.2-1.2-13.6-5.5,2.3-9.2
			C961.7,692.5,946.9,683.5,940.5,673.3L940.5,673.3z"/>
		<linearGradient id="SVGID_24_" gradientUnits="userSpaceOnUse" x1="935.8516" y1="688.3644" x2="935.8516" y2="656.6259">
			<stop  offset="0" style="stop-color:#28587D"/>
			<stop  offset="1" style="stop-color:#6EFFA8"/>
		</linearGradient>
		<path fill-rule="evenodd" clip-rule="evenodd" fill="url(#SVGID_24_)" d="M940.2,656.6c-8.6,14.8-28.2,21.6-43.4,25
			c3.4,2,24-5.1,11,4.7c8.7,2.5,17.8,2.7,23.9,0.2c6,1.9,11.9,1.3,17.6-0.7c11.9,4.8,19.7,2.3,25.5-3.6
			C962.8,679.8,949.4,671.5,940.2,656.6L940.2,656.6z"/>
		<linearGradient id="SVGID_25_" gradientUnits="userSpaceOnUse" x1="938.6688" y1="667.2681" x2="938.6688" y2="639.4431">
			<stop  offset="0" style="stop-color:#28587D"/>
			<stop  offset="1" style="stop-color:#6EFFA8"/>
		</linearGradient>
		<path fill-rule="evenodd" clip-rule="evenodd" fill="url(#SVGID_25_)" d="M940,639.4c-7.2,12.5-19,19.7-31.8,22.6
			c9.2,5.5,16.6,1.7,19.2-1.1c0.1,7.5,4.7,6.9,10,4.5c3.4,2.9,8.7,2.2,10.3-1.5c10,4.1,16.6,2,21.5-3C959,659,947.7,651.9,940,639.4
			L940,639.4z"/>
		<linearGradient id="SVGID_26_" gradientUnits="userSpaceOnUse" x1="938.6688" y1="644.8907" x2="938.6688" y2="623.66">
			<stop  offset="0" style="stop-color:#28587D"/>
			<stop  offset="1" style="stop-color:#6EFFA8"/>
		</linearGradient>
		<path fill-rule="evenodd" clip-rule="evenodd" fill="url(#SVGID_26_)" d="M939.6,623.7c-5.4,9.3-14.2,14.7-23.7,16.8
			c6.9,4.1,12.9,4.1,18.4,1.9c3.8,1.2,13.4,5.9,15.8-2.1c3.7,0.4,7.6,3.1,11.3-0.6C953.8,638.2,945.4,633,939.6,623.7L939.6,623.7z"
			/>
		<linearGradient id="SVGID_27_" gradientUnits="userSpaceOnUse" x1="938.6688" y1="605.2688" x2="938.6688" y2="585.3398">
			<stop  offset="0" style="stop-color:#28587D"/>
			<stop  offset="1" style="stop-color:#6EFFA8"/>
		</linearGradient>
		<path fill-rule="evenodd" clip-rule="evenodd" fill="url(#SVGID_27_)" d="M939.5,585.3c-4.6,9.3-12.1,14.7-20.2,16.8
			c5.9,4.1,12.5,1.1,15.9-4.3c-0.4,7.3,6.1,7.1,9.2,5.8c6.4,3,10.5,1.5,13.7-2.3C951.6,599.9,944.4,594.7,939.5,585.3L939.5,585.3z"
			/>
		<linearGradient id="SVGID_28_" gradientUnits="userSpaceOnUse" x1="938.6688" y1="576.5455" x2="938.6688" y2="559.758">
			<stop  offset="0" style="stop-color:#28587D"/>
			<stop  offset="1" style="stop-color:#6EFFA8"/>
		</linearGradient>
		<path fill-rule="evenodd" clip-rule="evenodd" fill="url(#SVGID_28_)" d="M939.1,559.8c-2.6,6.6-4.7,10.6-9.9,15.8
			c3.1,2.7,14.3-1,18.9-0.3C945,572.6,941.9,566.4,939.1,559.8L939.1,559.8z"/>
	</g>
	<g>
		<linearGradient id="SVGID_29_" gradientUnits="userSpaceOnUse" x1="574.6013" y1="980" x2="574.6013" y2="600.013">
			<stop  offset="0" style="stop-color:#1B829A"/>
			<stop  offset="1" style="stop-color:#9FE461"/>
		</linearGradient>
		<path fill-rule="evenodd" clip-rule="evenodd" fill="url(#SVGID_29_)" d="M0,606.7C434.6,571.1,824.7,675,1149.2,980H0V606.7z"/>
		<linearGradient id="SVGID_30_" gradientUnits="userSpaceOnUse" x1="545.2224" y1="980" x2="545.2224" y2="600.1429">
			<stop  offset="0" style="stop-color:#1B9BB3"/>
			<stop  offset="1" style="stop-color:#BEFF5F"/>
		</linearGradient>
		<path fill-rule="evenodd" clip-rule="evenodd" fill="url(#SVGID_30_)" d="M43.2,603.6c17.7-1.1,35.3-1.9,52.9-2.5
			c-33.2,19-65.2,39.2-96.1,60.4v-31.7C13.6,620.9,28.7,612.1,43.2,603.6L43.2,603.6z M179.7,600.1c15.7,0.2,31.3,0.6,46.8,1.1
			C144.1,644.9,69.1,695.6,0,751.9v-38C58,671.6,117.4,633.5,179.7,600.1L179.7,600.1z M301.9,605.8c13.9,1.2,27.8,2.5,41.6,4
			C212.5,675.8,100,759.1,0,854.6v-46.7C93.8,728.2,194.4,660.1,301.9,605.8L301.9,605.8z M411,618.6c12.4,1.9,24.8,4,37.2,6.2
			C269.4,712.5,124.7,832.3,0,971v-58.5C124.7,791.8,261.1,691.9,411,618.6L411,618.6z M508.9,637.2c11.2,2.5,22.4,5.2,33.6,8
			C368.1,730.3,226,846,103.3,980H45.7C185.1,837,337.9,719.8,508.9,637.2L508.9,637.2z M597.6,660.2c10.2,3,20.4,6.2,30.6,9.5
			C466,749.9,331.9,857,215.2,980h-56.4C291.6,847,436.6,738.5,597.6,660.2L597.6,660.2z M678.6,686.9c9.5,3.5,18.9,7,28.3,10.7
			C560,772.3,436.4,869,327.8,980h-55.2C396.3,860,530.7,760.5,678.6,686.9L678.6,686.9z M753.6,716.8c8.9,3.8,17.7,7.9,26.5,11.9
			C650.8,797.1,539.8,883,441.1,980h-54.1C499.8,874,621.2,785,753.6,716.8L753.6,716.8z M823.6,749.8c8.4,4.2,16.7,8.6,25,13
			C738.7,823.8,642.1,897,555.2,980h-53C602,889,708.7,811.5,823.6,749.8L823.6,749.8z M889.5,785.5c8,4.6,16,9.4,23.9,14.2
			C824,852,743.6,912,670.1,980h-52C703.3,905,793.5,839.7,889.5,785.5L889.5,785.5z M951.9,824.1c7.7,5,15.3,10.2,23,15.4
			C907,881.6,844.4,928,786.1,980h-51.1C803.9,921,876.1,869.2,951.9,824.1L951.9,824.1z M1011.5,865.3c7.5,5.5,14.9,11.1,22.3,16.7
			c-46,30.4-89.4,63.9-130.8,97.9h-50.3C903.7,938,956.6,899.9,1011.5,865.3L1011.5,865.3z M1068.5,909.4c7.3,6,14.6,12.1,21.9,18.2
			c-23.8,16.8-47,34.4-69.5,52.4h-49.6C1003.1,955,1035.5,931.5,1068.5,909.4L1068.5,909.4z"/>
	</g>
	<g>
		<path fill-rule="evenodd" clip-rule="evenodd" fill="#0C4466" d="M328.6,617.3c-3.1,73.3-0.9,196.9-11.1,249.6l29.4,0
			C333.3,801.3,332.8,698.3,328.6,617.3L328.6,617.3z"/>
		<linearGradient id="SVGID_31_" gradientUnits="userSpaceOnUse" x1="328.8875" y1="820.3704" x2="328.8875" y2="765.2173">
			<stop  offset="0" style="stop-color:#28587D"/>
			<stop  offset="1" style="stop-color:#6EFFA8"/>
		</linearGradient>
		<path fill-rule="evenodd" clip-rule="evenodd" fill="url(#SVGID_31_)" d="M329.8,765.2c-14,24.1-36.7,38.1-61.4,43.6
			c17.8,10.5,28.5,8.2,42.8,2.6c5.1,17.7,29.5-7.7,39.5,9c1.9-10.8,18-13,35.5-13.6c-8.4-1.7-18.4-7.5,3.1-12.4
			C358.4,791,338.4,779,329.8,765.2L329.8,765.2z"/>
		<linearGradient id="SVGID_32_" gradientUnits="userSpaceOnUse" x1="323.5506" y1="785.5375" x2="323.5506" y2="742.7151">
			<stop  offset="0" style="stop-color:#28587D"/>
			<stop  offset="1" style="stop-color:#6EFFA8"/>
		</linearGradient>
		<path fill-rule="evenodd" clip-rule="evenodd" fill="url(#SVGID_32_)" d="M329.4,742.7c-11.6,20-38.1,29.1-58.5,33.7
			c4.5,2.7,32.4-6.8,14.8,6.3c11.8,3.4,24.1,3.6,32.3,0.3c8.1,2.6,16,1.7,23.8-0.9c16.1,6.5,26.6,3.1,34.4-4.9
			C359.9,774,341.8,762.8,329.4,742.7L329.4,742.7z"/>
		<linearGradient id="SVGID_33_" gradientUnits="userSpaceOnUse" x1="327.3302" y1="757.0671" x2="327.3302" y2="719.5131">
			<stop  offset="0" style="stop-color:#28587D"/>
			<stop  offset="1" style="stop-color:#6EFFA8"/>
		</linearGradient>
		<path fill-rule="evenodd" clip-rule="evenodd" fill="url(#SVGID_33_)" d="M329.1,719.5c-9.7,16.8-25.7,26.7-42.9,30.5
			c12.5,7.3,22.4,2.3,25.9-1.5c0.2,10.1,6.3,9.3,13.5,6.1c4.6,3.9,11.8,2.9,13.9-2c13.5,5.5,22.4,2.7,29-4.1
			C354.8,745.9,339.5,736.4,329.1,719.5L329.1,719.5z"/>
		<linearGradient id="SVGID_34_" gradientUnits="userSpaceOnUse" x1="327.3302" y1="726.8937" x2="327.3302" y2="698.2357">
			<stop  offset="0" style="stop-color:#28587D"/>
			<stop  offset="1" style="stop-color:#6EFFA8"/>
		</linearGradient>
		<path fill-rule="evenodd" clip-rule="evenodd" fill="url(#SVGID_34_)" d="M328.6,698.2c-7.2,12.6-19.1,19.9-32,22.7
			c9.3,5.5,17.4,5.5,24.8,2.6c5.1,1.6,18.1,8,21.3-2.8c5,0.6,10.3,4.2,15.2-0.8C347.8,717.9,336.4,710.8,328.6,698.2L328.6,698.2z"
			/>
		<linearGradient id="SVGID_35_" gradientUnits="userSpaceOnUse" x1="327.3301" y1="673.4201" x2="327.3301" y2="646.5472">
			<stop  offset="0" style="stop-color:#28587D"/>
			<stop  offset="1" style="stop-color:#6EFFA8"/>
		</linearGradient>
		<path fill-rule="evenodd" clip-rule="evenodd" fill="url(#SVGID_35_)" d="M328.5,646.5c-6.2,12.5-16.3,19.8-27.3,22.7
			c7.9,5.5,16.8,1.5,21.5-5.8c-0.5,9.8,8.2,9.5,12.4,7.8c8.6,4.1,14.2,2,18.4-3C344.8,666.2,335.1,659.1,328.5,646.5L328.5,646.5z"
			/>
		<linearGradient id="SVGID_36_" gradientUnits="userSpaceOnUse" x1="327.3301" y1="634.6885" x2="327.3301" y2="612.0414">
			<stop  offset="0" style="stop-color:#28587D"/>
			<stop  offset="1" style="stop-color:#6EFFA8"/>
		</linearGradient>
		<path fill-rule="evenodd" clip-rule="evenodd" fill="url(#SVGID_36_)" d="M328,612c-3.5,9-6.3,14.3-13.4,21.3
			c4.2,3.7,19.3-1.4,25.5-0.4C335.9,629.3,331.7,621,328,612L328,612z"/>
	</g>
	<g>
		<linearGradient id="SVGID_37_" gradientUnits="userSpaceOnUse" x1="825.2399" y1="980" x2="825.2399" y2="712.0272">
			<stop  offset="0" style="stop-color:#1B829A"/>
			<stop  offset="1" style="stop-color:#9FE461"/>
		</linearGradient>
		<path fill-rule="evenodd" clip-rule="evenodd" fill="url(#SVGID_37_)" d="M1400,716.7C964.2,691.6,575,765,250.5,980H1400V716.7z"
			/>
		<linearGradient id="SVGID_38_" gradientUnits="userSpaceOnUse" x1="944.9949" y1="980" x2="944.9949" y2="712.1639">
			<stop  offset="0" style="stop-color:#1B9BB3"/>
			<stop  offset="1" style="stop-color:#BEFF5F"/>
		</linearGradient>
		<path fill-rule="evenodd" clip-rule="evenodd" fill="url(#SVGID_38_)" d="M1400,716.7c-4.9-0.3-10-0.6-15-0.8
			c5,4.6,10.1,9.2,15,13.9V716.7z M1316.4,713.1c-17.4-0.5-34.6-0.8-51.9-1c47.8,41.4,92.3,85.6,135.5,131.9v-56.6
			C1372.8,761.8,1344.8,736.9,1316.4,713.1L1316.4,713.1z M1197.5,712.4c-16.2,0.2-32.3,0.7-48.4,1.3
			c93.2,77.4,175.6,165.1,250.9,259.4v-71.4C1335.8,832.8,1268.2,769.3,1197.5,712.4L1197.5,712.4z M1084.2,717
			c-15.2,1-30.3,2.2-45.3,3.4c95.7,77,180.1,164.5,257,259.5h63C1273,881,1181.8,793.2,1084.2,717L1084.2,717z M976.8,726.6
			c-14.2,1.6-28.3,3.4-42.4,5.3c93.5,73.6,176.3,157.1,251.9,248.1h61.7C1163.1,885,1073.1,799.9,976.8,726.6L976.8,726.6z
			 M875.3,740.8c-13.3,2.2-26.6,4.6-39.8,7.2C924.4,817,1003.7,895,1076.2,980h60.4C1054.6,890,967.8,810.2,875.3,740.8L875.3,740.8
			z M779.5,759.3c-12.6,2.8-25.1,5.8-37.6,8.8C824,831.7,897.7,902,965.6,980h59.1C947.5,897,866,823.9,779.5,759.3L779.5,759.3z
			 M689.1,781.9c-11.9,3.3-23.8,6.8-35.6,10.3C726.4,849.1,792.8,912,854.4,980h57.9C841.6,907,767.4,840.4,689.1,781.9L689.1,781.9
			z M603.6,808.1c-11.4,3.8-22.7,7.8-33.9,11.9c62.1,49.2,119.4,102,173,160h56.7C736.9,917,671.8,859.7,603.6,808.1L603.6,808.1z
			 M522.5,837.9c-10.9,4.3-21.7,8.9-32.5,13.5c49.6,40.2,96.1,82.7,140.2,128.7h55.5C633.3,928,578.9,881.3,522.5,837.9L522.5,837.9
			z"/>
	</g>
	<g>
		<linearGradient id="SVGID_39_" gradientUnits="userSpaceOnUse" x1="600.5155" y1="980" x2="600.5155" y2="852.7284">
			<stop  offset="0" style="stop-color:#1B829A"/>
			<stop  offset="1" style="stop-color:#9FE461"/>
		</linearGradient>
		<path fill-rule="evenodd" clip-rule="evenodd" fill="url(#SVGID_39_)" d="M0,980v-63.8C329.6,829.3,902.6,815,1201,980H0z"/>
		<linearGradient id="SVGID_40_" gradientUnits="userSpaceOnUse" x1="589.5269" y1="980" x2="589.5269" y2="852.9411">
			<stop  offset="0" style="stop-color:#1B9BB3"/>
			<stop  offset="1" style="stop-color:#BEFF5F"/>
		</linearGradient>
		<path fill-rule="evenodd" clip-rule="evenodd" fill="url(#SVGID_40_)" d="M0,980v-13.4c44.4-28,89.1-54.6,135.2-79.6
			c30.6-5.4,62.3-10.1,94.9-14.3C166,906.2,104.8,942,46.4,980H0z M381.3,858.1c25.1-1.6,50.5-2.9,76-3.8
			C376.6,892.8,300.5,934,228.5,980h-67.1C232.1,936,305.4,894.7,381.3,858.1L381.3,858.1z M585.2,852.9c21.3,0.3,42.6,1,63.8,1.9
			C565.2,893,486.2,934,411.7,980h-67.2C421.6,933,501.8,890.5,585.2,852.9L585.2,852.9z M758.7,862.4c18.3,1.7,36.4,3.8,54.4,6.1
			C736.8,902.6,664.6,939,596,980h-67.4C602.5,937,679.1,897.3,758.7,862.4L758.7,862.4z M907.4,882.9c15.8,2.9,31.5,6.1,46.9,9.5
			C894.2,919.7,836.7,949,781.4,980h-67.6C776.4,944,840.9,912.2,907.4,882.9L907.4,882.9z M1035,912.9c13.8,4,27.4,8.3,40.6,12.8
			c-36.7,17.4-72.5,36.4-107.4,54.4h-67.9C944.3,955,989.1,933.7,1035,912.9L1035,912.9z M1144.2,952c11.9,5.2,23.6,10.8,34.8,16.4
			c-7.6,3.8-15.2,7.6-22.7,11.6h-67.9C1106.9,970,1125.5,961,1144.2,952L1144.2,952z"/>
	</g>
	<g>
		<path fill-rule="evenodd" clip-rule="evenodd" fill="#0C4466" d="M1044.5,680.1c-3.7,88-1.2,236.3-13.3,299.7l35.3,0
			C1050.2,901,1049.5,777.4,1044.5,680.1L1044.5,680.1z"/>
		<linearGradient id="SVGID_41_" gradientUnits="userSpaceOnUse" x1="1044.8105" y1="923.9225" x2="1044.8105" y2="857.7108">
			<stop  offset="0" style="stop-color:#28587D"/>
			<stop  offset="1" style="stop-color:#6EFFA8"/>
		</linearGradient>
		<path fill-rule="evenodd" clip-rule="evenodd" fill="url(#SVGID_41_)" d="M1046,857.7c-16.7,28.9-44.1,45.7-73.7,52.4
			c21.5,12.6,34.2,9.8,51.4,3c6.1,21.3,35.5-9.2,47.5,10.8c2.2-13,21.6-15.6,42.6-16.3c-10.1-2-22.1-9,3.7-14.9
			C1080.3,888.7,1056.2,874.3,1046,857.7L1046,857.7z"/>
		<linearGradient id="SVGID_42_" gradientUnits="userSpaceOnUse" x1="1038.4238" y1="882.0916" x2="1038.4238" y2="830.6942">
			<stop  offset="0" style="stop-color:#28587D"/>
			<stop  offset="1" style="stop-color:#6EFFA8"/>
		</linearGradient>
		<path fill-rule="evenodd" clip-rule="evenodd" fill="url(#SVGID_42_)" d="M1045.5,830.7c-13.9,24-45.7,34.9-70.3,40.4
			c5.5,3.2,38.8-8.2,17.8,7.5c14.1,4,28.9,4.3,38.8,0.4c9.7,3.1,19.2,2.1,28.5-1.1c19.3,7.9,31.9,3.8,41.3-5.8
			C1082.1,868.2,1060.3,854.8,1045.5,830.7L1045.5,830.7z"/>
		<linearGradient id="SVGID_43_" gradientUnits="userSpaceOnUse" x1="1042.9733" y1="847.9318" x2="1042.9733" y2="802.8726">
			<stop  offset="0" style="stop-color:#28587D"/>
			<stop  offset="1" style="stop-color:#6EFFA8"/>
		</linearGradient>
		<path fill-rule="evenodd" clip-rule="evenodd" fill="url(#SVGID_43_)" d="M1045.1,802.9c-11.7,20.2-30.9,32-51.5,36.6
			c15,8.9,26.8,2.8,31.1-1.7c0.2,12.1,7.6,11.2,16.2,7.3c5.5,4.7,14.1,3.6,16.7-2.3c16.3,6.6,26.9,3.2,34.8-4.9
			C1076,834.5,1057.6,823.1,1045.1,802.9L1045.1,802.9z"/>
		<linearGradient id="SVGID_44_" gradientUnits="userSpaceOnUse" x1="1042.9733" y1="811.6793" x2="1042.9733" y2="777.3259">
			<stop  offset="0" style="stop-color:#28587D"/>
			<stop  offset="1" style="stop-color:#6EFFA8"/>
		</linearGradient>
		<path fill-rule="evenodd" clip-rule="evenodd" fill="url(#SVGID_44_)" d="M1044.5,777.3c-8.7,15-23,23.8-38.4,27.3
			c11.2,6.6,20.9,6.6,29.8,3.1c6.1,1.9,21.8,9.6,25.6-3.3c6.1,0.7,12.4,5,18.3-1C1067.6,800.9,1053.9,792.4,1044.5,777.3
			L1044.5,777.3z"/>
		<linearGradient id="SVGID_45_" gradientUnits="userSpaceOnUse" x1="1042.9733" y1="747.5084" x2="1042.9733" y2="715.2436">
			<stop  offset="0" style="stop-color:#28587D"/>
			<stop  offset="1" style="stop-color:#6EFFA8"/>
		</linearGradient>
		<path fill-rule="evenodd" clip-rule="evenodd" fill="url(#SVGID_45_)" d="M1044.3,715.2c-7.5,15-19.6,23.8-32.7,27.3
			c9.5,6.6,20.2,1.7,25.8-7c-0.7,11.8,9.9,11.4,14.8,9.4c10.3,4.9,17.1,2.4,22.1-3.7C1063.9,738.8,1052.3,730.3,1044.3,715.2
			L1044.3,715.2z"/>
		<linearGradient id="SVGID_46_" gradientUnits="userSpaceOnUse" x1="1042.9733" y1="700.9964" x2="1042.9733" y2="673.8087">
			<stop  offset="0" style="stop-color:#28587D"/>
			<stop  offset="1" style="stop-color:#6EFFA8"/>
		</linearGradient>
		<path fill-rule="evenodd" clip-rule="evenodd" fill="url(#SVGID_46_)" d="M1043.7,673.8c-4.2,10.7-7.6,17.1-16,25.5
			c5,4.4,23.1-1.7,30.6-0.5C1053.2,694.5,1048.2,684.6,1043.7,673.8L1043.7,673.8z"/>
	</g>
	<g>
		<path fill-rule="evenodd" clip-rule="evenodd" fill="#0C4466" d="M1266.4,573.2c-5,119.4-1.6,320.7-18.1,406.6l47.9-0.1
			C1274.1,872.8,1273.2,705.2,1266.4,573.2L1266.4,573.2z"/>
		<linearGradient id="SVGID_47_" gradientUnits="userSpaceOnUse" x1="1266.8228" y1="903.975" x2="1266.8228" y2="814.1412">
			<stop  offset="0" style="stop-color:#28587D"/>
			<stop  offset="1" style="stop-color:#6EFFA8"/>
		</linearGradient>
		<path fill-rule="evenodd" clip-rule="evenodd" fill="url(#SVGID_47_)" d="M1268.4,814.1c-22.7,39.2-59.9,62-100,71
			c29.1,17.2,46.4,13.3,69.7,4.2c8.3,28.9,48.2-12.5,64.5,14.7c3-17.6,29.4-21.2,57.7-22.1c-13.7-2.7-30-12.2,5-20.2
			C1315,856.2,1282.3,836.6,1268.4,814.1L1268.4,814.1z"/>
		<linearGradient id="SVGID_48_" gradientUnits="userSpaceOnUse" x1="1258.1438" y1="847.1961" x2="1258.1438" y2="777.4658">
			<stop  offset="0" style="stop-color:#28587D"/>
			<stop  offset="1" style="stop-color:#6EFFA8"/>
		</linearGradient>
		<path fill-rule="evenodd" clip-rule="evenodd" fill="url(#SVGID_48_)" d="M1267.7,777.5c-18.9,32.5-62,47.4-95.4,54.8
			c7.4,4.4,52.7-11.2,24.1,10.2c19.1,5.5,39.3,5.8,52.6,0.6c13.2,4.2,26.1,2.9,38.7-1.5c26.2,10.6,43.3,5.1,56.1-7.9
			C1317.4,828.4,1287.9,810.1,1267.7,777.5L1267.7,777.5z"/>
		<linearGradient id="SVGID_49_" gradientUnits="userSpaceOnUse" x1="1264.3206" y1="800.8493" x2="1264.3206" y2="739.6705">
			<stop  offset="0" style="stop-color:#28587D"/>
			<stop  offset="1" style="stop-color:#6EFFA8"/>
		</linearGradient>
		<path fill-rule="evenodd" clip-rule="evenodd" fill="url(#SVGID_49_)" d="M1267.2,739.7c-15.9,27.4-41.9,43.4-70,49.7
			c20.3,12,36.4,3.8,42.2-2.3c0.4,16.5,10.3,15.2,22.1,9.9c7.5,6.4,19.1,4.8,22.6-3.2c22.1,9,36.5,4.3,47.3-6.6
			C1309.1,782.6,1284.2,767.2,1267.2,739.7L1267.2,739.7z"/>
		<linearGradient id="SVGID_50_" gradientUnits="userSpaceOnUse" x1="1264.3031" y1="751.6515" x2="1264.3031" y2="704.9899">
			<stop  offset="0" style="stop-color:#28587D"/>
			<stop  offset="1" style="stop-color:#6EFFA8"/>
		</linearGradient>
		<path fill-rule="evenodd" clip-rule="evenodd" fill="url(#SVGID_50_)" d="M1266.4,705c-11.8,20.4-31.2,32.4-52.1,37
			c15.2,9,28.3,9,40.5,4.2c8.3,2.6,29.5,13.1,34.7-4.5c8.2,0.9,16.8,6.8,24.8-1.4C1297.7,737,1279.1,725.5,1266.4,705L1266.4,705z"
			/>
		<linearGradient id="SVGID_51_" gradientUnits="userSpaceOnUse" x1="1264.3031" y1="664.5621" x2="1264.3031" y2="620.7903">
			<stop  offset="0" style="stop-color:#28587D"/>
			<stop  offset="1" style="stop-color:#6EFFA8"/>
		</linearGradient>
		<path fill-rule="evenodd" clip-rule="evenodd" fill="url(#SVGID_51_)" d="M1266.1,620.8c-10.1,20.4-26.6,32.3-44.4,37
			c12.9,9,27.4,2.4,35-9.6c-0.9,16.1,13.4,15.5,20.2,12.8c14,6.7,23.1,3.2,30-5C1292.7,652.8,1276.9,641.3,1266.1,620.8
			L1266.1,620.8z"/>
		<linearGradient id="SVGID_52_" gradientUnits="userSpaceOnUse" x1="1264.3031" y1="601.4496" x2="1264.3031" y2="564.5524">
			<stop  offset="0" style="stop-color:#28587D"/>
			<stop  offset="1" style="stop-color:#6EFFA8"/>
		</linearGradient>
		<path fill-rule="evenodd" clip-rule="evenodd" fill="url(#SVGID_52_)" d="M1265.3,564.6c-5.6,14.6-10.2,23.3-21.8,34.7
			c6.8,6,31.4-2.3,41.5-0.7C1278.2,592.7,1271.3,579.2,1265.3,564.6L1265.3,564.6z"/>
	</g>
	<g>
		<path fill-rule="evenodd" clip-rule="evenodd" fill="#0C4466" d="M122.9,540.4c-5.5,129-1.7,346.5-19.6,439.4l51.7-0.1
			C131.1,864.2,130.2,683,122.9,540.4L122.9,540.4z"/>
		<linearGradient id="SVGID_53_" gradientUnits="userSpaceOnUse" x1="123.2881" y1="897.8857" x2="123.2881" y2="800.8079">
			<stop  offset="0" style="stop-color:#28587D"/>
			<stop  offset="1" style="stop-color:#6EFFA8"/>
		</linearGradient>
		<path fill-rule="evenodd" clip-rule="evenodd" fill="url(#SVGID_53_)" d="M125,800.8c-24.5,42.3-64.7,67.1-108.1,76.7
			c31.5,18.5,50.2,14.4,75.3,4.5c8.9,31.2,52-13.4,69.7,15.9c3.3-19,31.7-23,62.4-23.9c-14.8-2.9-32.4-13.1,5.4-21.8
			C175.3,846.2,140,825.1,125,800.8L125,800.8z"/>
		<linearGradient id="SVGID_54_" gradientUnits="userSpaceOnUse" x1="113.9093" y1="836.5297" x2="113.9093" y2="761.1578">
			<stop  offset="0" style="stop-color:#28587D"/>
			<stop  offset="1" style="stop-color:#6EFFA8"/>
		</linearGradient>
		<path fill-rule="evenodd" clip-rule="evenodd" fill="url(#SVGID_54_)" d="M124.3,761.2c-20.4,35.2-67.1,51.2-103.1,59.2
			c8,4.7,57-12,26.1,11.1c20.7,5.9,42.4,6.3,56.9,0.6c14.3,4.5,28.2,3.1,41.8-1.6c28.3,11.5,46.8,5.6,60.6-8.5
			C178,816.2,146.1,796.4,124.3,761.2L124.3,761.2z"/>
		<linearGradient id="SVGID_55_" gradientUnits="userSpaceOnUse" x1="120.576" y1="786.4387" x2="120.576" y2="720.3529">
			<stop  offset="0" style="stop-color:#28587D"/>
			<stop  offset="1" style="stop-color:#6EFFA8"/>
		</linearGradient>
		<path fill-rule="evenodd" clip-rule="evenodd" fill="url(#SVGID_55_)" d="M123.7,720.4C106.5,750,78.4,767.2,48.1,774
			c22,13,39.3,4.1,45.6-2.6c0.4,17.8,11.1,16.4,23.8,10.7c8.1,6.9,20.7,5.2,24.5-3.4c23.9,9.7,39.4,4.7,51.1-7.2
			C168.9,766.7,142.1,750.1,123.7,720.4L123.7,720.4z"/>
		<linearGradient id="SVGID_56_" gradientUnits="userSpaceOnUse" x1="120.576" y1="733.2941" x2="120.576" y2="682.8726">
			<stop  offset="0" style="stop-color:#28587D"/>
			<stop  offset="1" style="stop-color:#6EFFA8"/>
		</linearGradient>
		<path fill-rule="evenodd" clip-rule="evenodd" fill="url(#SVGID_56_)" d="M122.9,682.9c-12.8,22.1-33.7,35-56.3,40
			c16.4,9.7,30.6,9.7,43.7,4.5c9,2.8,32,14.1,37.6-4.9c8.9,1,18.1,7.3,26.8-1.5C156.6,717.4,136.6,705,122.9,682.9L122.9,682.9z"/>
		<linearGradient id="SVGID_57_" gradientUnits="userSpaceOnUse" x1="120.576" y1="639.1749" x2="120.576" y2="591.884">
			<stop  offset="0" style="stop-color:#28587D"/>
			<stop  offset="1" style="stop-color:#6EFFA8"/>
		</linearGradient>
		<path fill-rule="evenodd" clip-rule="evenodd" fill="url(#SVGID_57_)" d="M122.5,591.9c-10.9,22-28.7,34.9-48,40
			c14,9.7,29.6,2.6,37.8-10.3c-0.9,17.3,14.5,16.8,21.8,13.8c15.1,7.2,25,3.5,32.4-5.4C151.3,626.4,134.2,614,122.5,591.9
			L122.5,591.9z"/>
		<linearGradient id="SVGID_58_" gradientUnits="userSpaceOnUse" x1="120.5935" y1="570.9764" x2="120.5935" y2="531.1316">
			<stop  offset="0" style="stop-color:#28587D"/>
			<stop  offset="1" style="stop-color:#6EFFA8"/>
		</linearGradient>
		<path fill-rule="evenodd" clip-rule="evenodd" fill="url(#SVGID_58_)" d="M121.7,531.1c-6.1,15.7-11,25.2-23.5,37.4
			c7.3,6.5,33.9-2.5,44.8-0.7C135.6,561.5,128.2,546.9,121.7,531.1L121.7,531.1z"/>
	</g>
</g>
</svg>
