<svg id="visual" viewBox="0 0 540 960" width="540" height="960" xmlns="http://www.w3.org/2000/svg" xmlns:xlink="http://www.w3.org/1999/xlink" version="1.1"><rect x="0" y="0" width="540" height="960" fill="#001220"></rect><path d="M0 561L12.8 570.3C25.7 579.7 51.3 598.3 77 618.5C102.7 638.7 128.3 660.3 154 660.5C179.7 660.7 205.3 639.3 231.2 641.7C257 644 283 670 308.8 661.8C334.7 653.7 360.3 611.3 386 594.7C411.7 578 437.3 587 463 606.5C488.7 626 514.3 656 527.2 671L540 686L540 961L527.2 961C514.3 961 488.7 961 463 961C437.3 961 411.7 961 386 961C360.3 961 334.7 961 308.8 961C283 961 257 961 231.2 961C205.3 961 179.7 961 154 961C128.3 961 102.7 961 77 961C51.3 961 25.7 961 12.8 961L0 961Z" fill="#fa7268"></path><path d="M0 685L12.8 677.5C25.7 670 51.3 655 77 660C102.7 665 128.3 690 154 707.2C179.7 724.3 205.3 733.7 231.2 733.2C257 732.7 283 722.3 308.8 725.5C334.7 728.7 360.3 745.3 386 752.2C411.7 759 437.3 756 463 742.7C488.7 729.3 514.3 705.7 527.2 693.8L540 682L540 961L527.2 961C514.3 961 488.7 961 463 961C437.3 961 411.7 961 386 961C360.3 961 334.7 961 308.8 961C283 961 257 961 231.2 961C205.3 961 179.7 961 154 961C128.3 961 102.7 961 77 961C51.3 961 25.7 961 12.8 961L0 961Z" fill="#ef5f67"></path><path d="M0 702L12.8 719.3C25.7 736.7 51.3 771.3 77 774.8C102.7 778.3 128.3 750.7 154 749.7C179.7 748.7 205.3 774.3 231.2 780.8C257 787.3 283 774.7 308.8 776.8C334.7 779 360.3 796 386 800C411.7 804 437.3 795 463 786.2C488.7 777.3 514.3 768.7 527.2 764.3L540 760L540 961L527.2 961C514.3 961 488.7 961 463 961C437.3 961 411.7 961 386 961C360.3 961 334.7 961 308.8 961C283 961 257 961 231.2 961C205.3 961 179.7 961 154 961C128.3 961 102.7 961 77 961C51.3 961 25.7 961 12.8 961L0 961Z" fill="#e34c67"></path><path d="M0 775L12.8 790.5C25.7 806 51.3 837 77 837.7C102.7 838.3 128.3 808.7 154 801.5C179.7 794.3 205.3 809.7 231.2 814C257 818.3 283 811.7 308.8 818.5C334.7 825.3 360.3 845.7 386 855.2C411.7 864.7 437.3 863.3 463 859.3C488.7 855.3 514.3 848.7 527.2 845.3L540 842L540 961L527.2 961C514.3 961 488.7 961 463 961C437.3 961 411.7 961 386 961C360.3 961 334.7 961 308.8 961C283 961 257 961 231.2 961C205.3 961 179.7 961 154 961C128.3 961 102.7 961 77 961C51.3 961 25.7 961 12.8 961L0 961Z" fill="#d53867"></path><path d="M0 860L12.8 864C25.7 868 51.3 876 77 875.8C102.7 875.7 128.3 867.3 154 866C179.7 864.7 205.3 870.3 231.2 869.5C257 868.7 283 861.3 308.8 866C334.7 870.7 360.3 887.3 386 891.5C411.7 895.7 437.3 887.3 463 879C488.7 870.7 514.3 862.3 527.2 858.2L540 854L540 961L527.2 961C514.3 961 488.7 961 463 961C437.3 961 411.7 961 386 961C360.3 961 334.7 961 308.8 961C283 961 257 961 231.2 961C205.3 961 179.7 961 154 961C128.3 961 102.7 961 77 961C51.3 961 25.7 961 12.8 961L0 961Z" fill="#c62368"></path></svg>